# This file uses centimeters as units for non-parametric coordinates.

mtllib LargePipe.mtl
g default
v -9.535751 -0.082793 -0.309017
v -9.677790 -0.082793 -0.587786
v -9.899022 -0.082793 -0.809017
v -10.177791 -0.082793 -0.951057
v -10.486808 -0.082793 -1.000000
v -10.795825 -0.082793 -0.951057
v -11.074593 -0.082793 -0.809017
v -11.295825 -0.082793 -0.587785
v -11.437865 -0.082793 -0.309017
v -11.486808 -0.082793 0.000000
v -11.437865 -0.082793 0.309017
v -11.295825 -0.082793 0.587785
v -11.074593 -0.082793 0.809017
v -10.795825 -0.082793 0.951057
v -10.486808 -0.082793 1.000000
v -10.177791 -0.082793 0.951057
v -9.899023 -0.082793 0.809017
v -9.677791 -0.082793 0.587785
v -9.535751 -0.082793 0.309017
v -9.486808 -0.082793 0.000000
v -9.535751 13.107015 -0.309017
v -9.677790 13.107015 -0.587786
v -9.899022 13.107015 -0.809017
v -10.177791 13.107015 -0.951057
v -10.486808 13.107015 -1.000000
v -10.795825 13.107015 -0.951057
v -11.074593 13.107015 -0.809017
v -11.295825 13.107015 -0.587785
v -11.437865 13.107015 -0.309017
v -11.486808 13.107015 0.000000
v -11.437865 13.107015 0.309017
v -11.295825 13.107015 0.587785
v -11.074593 13.107015 0.809017
v -10.795825 13.107015 0.951057
v -10.486808 13.107015 1.000000
v -10.177791 13.107015 0.951057
v -9.899023 13.107015 0.809017
v -9.677791 13.107015 0.587785
v -9.535751 13.107015 0.309017
v -9.486808 13.107015 0.000000
v -9.401579 -0.116545 -0.352612
v -9.563657 -0.116545 -0.670708
v -9.816100 -0.116545 -0.923151
v -10.134196 -0.116545 -1.085229
v -10.486808 -0.116545 -1.141077
v -10.839420 -0.116545 -1.085229
v -11.157516 -0.116545 -0.923151
v -11.409959 -0.116545 -0.670708
v -11.572037 -0.116545 -0.352612
v -11.627885 -0.116545 0.000000
v -11.572037 -0.116545 0.352612
v -11.409959 -0.116545 0.670708
v -11.157516 -0.116545 0.923150
v -10.839420 -0.116545 1.085228
v -10.486808 -0.116545 1.141077
v -10.134196 -0.116545 1.085228
v -9.816100 -0.116545 0.923150
v -9.563658 -0.116545 0.670708
v -9.401580 -0.116545 0.352612
v -9.345732 -0.116545 0.000000
v -9.401579 13.140766 -0.352612
v -9.563657 13.140766 -0.670708
v -9.816100 13.140766 -0.923151
v -10.134196 13.140766 -1.085229
v -10.486808 13.140766 -1.141077
v -10.839420 13.140766 -1.085229
v -11.157516 13.140766 -0.923151
v -11.409959 13.140766 -0.670708
v -11.572037 13.140766 -0.352612
v -11.627885 13.140766 0.000000
v -11.572037 13.140766 0.352612
v -11.409959 13.140766 0.670708
v -11.157516 13.140766 0.923150
v -10.839420 13.140766 1.085228
v -10.486808 13.140766 1.141077
v -10.134196 13.140766 1.085228
v -9.816100 13.140766 0.923150
v -9.563658 13.140766 0.670708
v -9.401580 13.140766 0.352612
v -9.345732 13.140766 0.000000
v -9.401579 -0.338158 -0.352612
v -9.563657 -0.338158 -0.670708
v -10.486808 -0.338158 0.000000
v -9.816100 -0.338158 -0.923151
v -10.134196 -0.338158 -1.085229
v -10.486808 -0.338158 -1.141077
v -10.839420 -0.338158 -1.085229
v -11.157516 -0.338158 -0.923151
v -11.409959 -0.338158 -0.670708
v -11.572037 -0.338158 -0.352612
v -11.627885 -0.338158 0.000000
v -11.572037 -0.338158 0.352612
v -11.409959 -0.338158 0.670708
v -11.157516 -0.338158 0.923150
v -10.839420 -0.338158 1.085228
v -10.486808 -0.338158 1.141077
v -10.134196 -0.338158 1.085228
v -9.816100 -0.338158 0.923150
v -9.563658 -0.338158 0.670708
v -9.401580 -0.338158 0.352612
v -9.345732 -0.338158 0.000000
v -9.401579 13.362379 -0.352612
v -9.563657 13.362379 -0.670708
v -10.486808 13.362379 0.000000
v -9.816100 13.362379 -0.923151
v -10.134196 13.362379 -1.085229
v -10.486808 13.362379 -1.141077
v -10.839420 13.362379 -1.085229
v -11.157516 13.362379 -0.923151
v -11.409959 13.362379 -0.670708
v -11.572037 13.362379 -0.352612
v -11.627885 13.362379 0.000000
v -11.572037 13.362379 0.352612
v -11.409959 13.362379 0.670708
v -11.157516 13.362379 0.923150
v -10.839420 13.362379 1.085228
v -10.486808 13.362379 1.141077
v -10.134196 13.362379 1.085228
v -9.816100 13.362379 0.923150
v -9.563658 13.362379 0.670708
v -9.401580 13.362379 0.352612
v -9.345732 13.362379 0.000000
vt 0.648603 0.107966
vt 0.626409 0.064408
vt 0.591842 0.029841
vt 0.548284 0.007647
vt 0.500000 -0.000000
vt 0.451716 0.007647
vt 0.408159 0.029841
vt 0.373591 0.064409
vt 0.351397 0.107966
vt 0.343750 0.156250
vt 0.351397 0.204534
vt 0.373591 0.248091
vt 0.408159 0.282659
vt 0.451716 0.304853
vt 0.500000 0.312500
vt 0.548284 0.304853
vt 0.591841 0.282659
vt 0.626409 0.248091
vt 0.648603 0.204534
vt 0.656250 0.156250
vt 0.375000 0.312500
vt 0.387500 0.312500
vt 0.400000 0.312500
vt 0.412500 0.312500
vt 0.425000 0.312500
vt 0.437500 0.312500
vt 0.450000 0.312500
vt 0.462500 0.312500
vt 0.475000 0.312500
vt 0.487500 0.312500
vt 0.500000 0.312500
vt 0.512500 0.312500
vt 0.525000 0.312500
vt 0.537500 0.312500
vt 0.550000 0.312500
vt 0.562500 0.312500
vt 0.575000 0.312500
vt 0.587500 0.312500
vt 0.600000 0.312500
vt 0.612500 0.312500
vt 0.625000 0.312500
vt 0.375000 0.688440
vt 0.387500 0.688440
vt 0.400000 0.688440
vt 0.412500 0.688440
vt 0.425000 0.688440
vt 0.437500 0.688440
vt 0.450000 0.688440
vt 0.462500 0.688440
vt 0.475000 0.688440
vt 0.487500 0.688440
vt 0.500000 0.688440
vt 0.512500 0.688440
vt 0.525000 0.688440
vt 0.537500 0.688440
vt 0.550000 0.688440
vt 0.562500 0.688440
vt 0.575000 0.688440
vt 0.587500 0.688440
vt 0.600000 0.688440
vt 0.612500 0.688440
vt 0.625000 0.688440
vt 0.648603 0.795466
vt 0.626409 0.751908
vt 0.591842 0.717341
vt 0.548284 0.695147
vt 0.500000 0.687500
vt 0.451716 0.695147
vt 0.408159 0.717341
vt 0.373591 0.751909
vt 0.351397 0.795466
vt 0.343750 0.843750
vt 0.351397 0.892034
vt 0.373591 0.935591
vt 0.408159 0.970159
vt 0.451716 0.992353
vt 0.500000 1.000000
vt 0.548284 0.992353
vt 0.591841 0.970159
vt 0.626409 0.935591
vt 0.648603 0.892034
vt 0.656250 0.843750
vt 0.500000 0.150000
vt 0.500000 0.837500
vt 0.626409 0.064408
vt 0.648603 0.107966
vt 0.591842 0.029841
vt 0.548284 0.007647
vt 0.500000 -0.000000
vt 0.451716 0.007647
vt 0.408159 0.029841
vt 0.373591 0.064409
vt 0.351397 0.107966
vt 0.343750 0.156250
vt 0.351397 0.204534
vt 0.373591 0.248091
vt 0.408159 0.282659
vt 0.451716 0.304853
vt 0.500000 0.312500
vt 0.548284 0.304853
vt 0.591841 0.282659
vt 0.626409 0.248091
vt 0.648603 0.204534
vt 0.656250 0.156250
vt 0.648603 0.892034
vt 0.626409 0.935591
vt 0.591841 0.970159
vt 0.548284 0.992353
vt 0.500000 1.000000
vt 0.451716 0.992353
vt 0.408159 0.970159
vt 0.373591 0.935591
vt 0.351397 0.892034
vt 0.343750 0.843750
vt 0.351397 0.795466
vt 0.373591 0.751909
vt 0.408159 0.717341
vt 0.451716 0.695147
vt 0.500000 0.687500
vt 0.548284 0.695147
vt 0.591842 0.717341
vt 0.626409 0.751908
vt 0.648603 0.795466
vt 0.656250 0.843750
vt 0.626409 0.064408
vt 0.648603 0.107966
vt 0.591842 0.029841
vt 0.548284 0.007647
vt 0.500000 -0.000000
vt 0.451716 0.007647
vt 0.408159 0.029841
vt 0.373591 0.064409
vt 0.351397 0.107966
vt 0.343750 0.156250
vt 0.351397 0.204534
vt 0.373591 0.248091
vt 0.408159 0.282659
vt 0.451716 0.304853
vt 0.500000 0.312500
vt 0.548284 0.304853
vt 0.591841 0.282659
vt 0.626409 0.248091
vt 0.648603 0.204534
vt 0.656250 0.156250
vt 0.648603 0.892034
vt 0.626409 0.935591
vt 0.591841 0.970159
vt 0.548284 0.992353
vt 0.500000 1.000000
vt 0.451716 0.992353
vt 0.408159 0.970159
vt 0.373591 0.935591
vt 0.351397 0.892034
vt 0.343750 0.843750
vt 0.351397 0.795466
vt 0.373591 0.751909
vt 0.408159 0.717341
vt 0.451716 0.695147
vt 0.500000 0.687500
vt 0.548284 0.695147
vt 0.591842 0.717341
vt 0.626409 0.751908
vt 0.648603 0.795466
vt 0.656250 0.843750
vn 0.000000 -1.000000 -0.000001
vn 0.000000 -1.000000 0.000001
vn 0.000000 -1.000000 0.000000
vn 0.000000 -1.000000 -0.000000
vn 0.000000 -1.000000 -0.000000
vn 0.000000 -1.000000 0.000000
vn 0.000000 -1.000000 0.000001
vn 0.000000 -1.000000 0.000000
vn 0.000000 -1.000000 -0.000001
vn 0.000000 -1.000000 0.000000
vn 0.000000 -1.000000 0.000000
vn 0.000000 -1.000000 0.000000
vn 0.000000 -1.000000 0.000000
vn 0.000000 -1.000000 -0.000000
vn 0.000000 -1.000000 -0.000000
vn 0.000000 -1.000000 -0.000000
vn 0.000000 -1.000000 0.000000
vn 0.000000 -1.000000 0.000001
vn 0.000000 -1.000000 0.000000
vn 0.000000 -1.000000 0.000000
vn 0.000000 -1.000000 0.000002
vn 0.000000 1.000000 0.000002
vn 0.000000 1.000000 0.000000
vn 0.000000 1.000000 0.000000
vn 0.000000 1.000000 -0.000001
vn 0.000000 1.000000 -0.000001
vn 0.000000 1.000000 0.000000
vn 0.000000 1.000000 0.000000
vn 0.000000 1.000000 0.000000
vn 0.000000 1.000000 0.000001
vn 0.000000 1.000000 0.000001
vn 0.000000 1.000000 0.000000
vn 0.000000 1.000000 -0.000002
vn 0.000000 1.000000 -0.000002
vn 0.000000 1.000000 0.000000
vn 0.000000 1.000000 0.000000
vn 0.000000 1.000000 0.000000
vn 0.000000 1.000000 -0.000000
vn 0.000000 1.000000 0.000001
vn 0.000000 1.000000 0.000000
vn 0.000000 1.000000 -0.000001
vn 0.000000 1.000000 0.000002
vn 0.188243 0.972553 -0.136767
vn 0.221293 0.972553 -0.071902
vn 0.221293 0.972553 -0.071902
vn 0.188243 0.972553 -0.136767
vn 0.136767 0.972553 -0.188243
vn 0.136767 0.972553 -0.188243
vn 0.071902 0.972553 -0.221293
vn 0.071902 0.972553 -0.221293
vn -0.000000 0.972553 -0.232682
vn 0.000000 0.972553 -0.232682
vn -0.071902 0.972553 -0.221293
vn -0.071902 0.972553 -0.221293
vn -0.136767 0.972553 -0.188243
vn -0.136767 0.972553 -0.188243
vn -0.188243 0.972553 -0.136767
vn -0.188243 0.972553 -0.136767
vn -0.221293 0.972553 -0.071903
vn -0.221293 0.972553 -0.071903
vn -0.232681 0.972553 -0.000000
vn -0.232681 0.972553 0.000000
vn -0.221293 0.972553 0.071903
vn -0.221293 0.972553 0.071903
vn -0.188243 0.972553 0.136767
vn -0.188243 0.972553 0.136767
vn -0.136767 0.972553 0.188244
vn -0.136767 0.972553 0.188244
vn -0.071902 0.972553 0.221293
vn -0.071902 0.972553 0.221293
vn 0.000000 0.972553 0.232682
vn 0.000000 0.972553 0.232682
vn 0.071902 0.972553 0.221293
vn 0.071902 0.972553 0.221293
vn 0.136767 0.972553 0.188243
vn 0.136767 0.972553 0.188243
vn 0.188243 0.972553 0.136767
vn 0.188243 0.972553 0.136767
vn 0.221293 0.972553 0.071903
vn 0.221293 0.972553 0.071903
vn 0.232681 0.972553 0.000001
vn 0.232681 0.972553 0.000001
vn 0.188235 -0.972556 -0.136761
vn 0.188235 -0.972556 -0.136761
vn 0.221283 -0.972556 -0.071899
vn 0.221283 -0.972556 -0.071898
vn 0.136761 -0.972556 -0.188234
vn 0.136761 -0.972556 -0.188234
vn 0.071899 -0.972556 -0.221282
vn 0.071899 -0.972556 -0.221282
vn -0.000000 -0.972555 -0.232671
vn 0.000000 -0.972555 -0.232671
vn -0.071899 -0.972556 -0.221282
vn -0.071899 -0.972556 -0.221282
vn -0.136761 -0.972556 -0.188234
vn -0.136761 -0.972556 -0.188234
vn -0.188235 -0.972555 -0.136761
vn -0.188235 -0.972555 -0.136761
vn -0.221283 -0.972556 -0.071899
vn -0.221283 -0.972556 -0.071899
vn -0.232671 -0.972556 0.000001
vn -0.232671 -0.972556 0.000001
vn -0.221283 -0.972556 0.071899
vn -0.221283 -0.972556 0.071899
vn -0.188235 -0.972556 0.136761
vn -0.188235 -0.972556 0.136761
vn -0.136761 -0.972556 0.188234
vn -0.136761 -0.972556 0.188234
vn -0.071899 -0.972556 0.221282
vn -0.071899 -0.972556 0.221282
vn 0.000000 -0.972555 0.232671
vn 0.000000 -0.972555 0.232671
vn 0.071899 -0.972556 0.221282
vn 0.071899 -0.972556 0.221282
vn 0.136761 -0.972556 0.188234
vn 0.136761 -0.972556 0.188234
vn 0.188235 -0.972556 0.136761
vn 0.188235 -0.972556 0.136761
vn 0.221283 -0.972556 0.071899
vn 0.221283 -0.972556 0.071899
vn 0.232671 -0.972555 0.000000
vn 0.232671 -0.972555 0.000000
vn 0.809018 0.000000 -0.587785
vn 0.951057 0.000000 -0.309016
vn 0.951057 0.000000 -0.309016
vn 0.809018 0.000000 -0.587785
vn 0.587786 0.000000 -0.809017
vn 0.587786 0.000000 -0.809017
vn 0.309017 0.000000 -0.951057
vn 0.309017 0.000000 -0.951057
vn 0.000000 0.000000 -1.000000
vn 0.000000 0.000000 -1.000000
vn -0.309017 0.000000 -0.951057
vn -0.309017 0.000000 -0.951057
vn -0.587786 0.000000 -0.809017
vn -0.587786 0.000000 -0.809017
vn -0.809017 0.000000 -0.587785
vn -0.809017 0.000000 -0.587785
vn -0.951057 0.000000 -0.309016
vn -0.951057 0.000000 -0.309016
vn -1.000000 0.000000 0.000000
vn -1.000000 0.000000 0.000000
vn -0.951057 0.000000 0.309017
vn -0.951057 0.000000 0.309017
vn -0.809017 0.000000 0.587785
vn -0.809017 0.000000 0.587785
vn -0.587786 0.000000 0.809017
vn -0.587786 0.000000 0.809017
vn -0.309017 0.000000 0.951057
vn -0.309017 0.000000 0.951057
vn 0.000000 0.000000 1.000000
vn 0.000000 0.000000 1.000000
vn 0.309017 0.000000 0.951057
vn 0.309017 0.000000 0.951057
vn 0.587786 0.000000 0.809017
vn 0.587786 0.000000 0.809017
vn 0.809017 0.000000 0.587785
vn 0.809017 0.000000 0.587785
vn 0.951057 0.000000 0.309017
vn 0.951057 0.000000 0.309017
vn 1.000000 0.000000 0.000001
vn 1.000000 0.000000 0.000001
vn 0.951057 0.000000 -0.309016
vn 0.809018 0.000000 -0.587785
vn 0.809018 0.000000 -0.587785
vn 0.951057 0.000000 -0.309016
vn 0.587785 0.000000 -0.809017
vn 0.587785 0.000000 -0.809017
vn 0.309016 0.000000 -0.951057
vn 0.309016 0.000000 -0.951057
vn 0.000000 0.000000 -1.000000
vn 0.000000 0.000000 -1.000000
vn -0.309016 0.000000 -0.951057
vn -0.309016 0.000000 -0.951057
vn -0.587786 0.000000 -0.809017
vn -0.587786 0.000000 -0.809017
vn -0.809017 0.000000 -0.587785
vn -0.809017 0.000000 -0.587785
vn -0.951057 0.000000 -0.309017
vn -0.951057 0.000000 -0.309017
vn -1.000000 0.000000 -0.000000
vn -1.000000 0.000000 -0.000000
vn -0.951057 0.000000 0.309017
vn -0.951057 0.000000 0.309017
vn -0.809017 0.000000 0.587785
vn -0.809017 0.000000 0.587785
vn -0.587785 0.000000 0.809017
vn -0.587785 0.000000 0.809017
vn -0.309016 0.000000 0.951057
vn -0.309016 0.000000 0.951057
vn 0.000000 0.000000 1.000000
vn 0.000000 0.000000 1.000000
vn 0.309017 0.000000 0.951057
vn 0.309017 0.000000 0.951057
vn 0.587785 0.000000 0.809017
vn 0.587785 0.000000 0.809017
vn 0.809017 0.000000 0.587785
vn 0.809017 0.000000 0.587785
vn 0.951057 0.000000 0.309017
vn 0.951057 0.000000 0.309017
vn 1.000000 0.000000 0.000001
vn 1.000000 0.000000 0.000001
vn 1.000000 0.000000 0.000001
vn 0.951057 0.000000 -0.309016
vn 0.951057 0.000000 -0.309016
vn 1.000000 0.000000 0.000001
vn 0.951057 0.000000 0.309017
vn 0.951057 0.000000 0.309017
vn 0.809017 0.000000 0.587785
vn 0.809017 0.000000 0.587785
vn 0.587785 0.000000 0.809017
vn 0.587785 0.000000 0.809017
vn 0.309017 0.000000 0.951057
vn 0.309017 0.000000 0.951057
vn 0.000000 0.000000 1.000000
vn 0.000000 0.000000 1.000000
vn -0.309017 0.000000 0.951057
vn -0.309017 0.000000 0.951057
vn -0.587785 0.000000 0.809017
vn -0.587785 0.000000 0.809017
vn -0.809017 0.000000 0.587785
vn -0.809017 0.000000 0.587785
vn -0.951057 0.000000 0.309017
vn -0.951057 0.000000 0.309017
vn -1.000000 0.000000 0.000000
vn -1.000000 0.000000 0.000000
vn -0.951057 0.000000 -0.309017
vn -0.951057 0.000000 -0.309017
vn -0.809017 0.000000 -0.587785
vn -0.809017 0.000000 -0.587785
vn -0.587785 0.000000 -0.809017
vn -0.587785 0.000000 -0.809017
vn -0.309017 0.000000 -0.951057
vn -0.309017 0.000000 -0.951057
vn -0.000000 0.000000 -1.000000
vn -0.000000 0.000000 -1.000000
vn 0.309017 0.000000 -0.951057
vn 0.309017 0.000000 -0.951057
vn 0.587785 0.000000 -0.809017
vn 0.587785 0.000000 -0.809017
vn 0.809017 0.000000 -0.587785
vn 0.809017 0.000000 -0.587785
s 1
g LargePipe
usemtl initialShadingGroup
f 82/125/1 81/126/2 83/83/3
f 84/127/4 82/125/1 83/83/3
f 85/128/5 84/127/4 83/83/3
f 86/129/6 85/128/5 83/83/3
f 87/130/7 86/129/6 83/83/3
f 88/131/8 87/130/7 83/83/3
f 89/132/9 88/131/8 83/83/3
f 90/133/10 89/132/9 83/83/3
f 91/134/11 90/133/10 83/83/3
f 92/135/12 91/134/11 83/83/3
f 93/136/13 92/135/12 83/83/3
f 94/137/14 93/136/13 83/83/3
f 95/138/15 94/137/14 83/83/3
f 96/139/16 95/138/15 83/83/3
f 97/140/17 96/139/16 83/83/3
f 98/141/18 97/140/17 83/83/3
f 99/142/19 98/141/18 83/83/3
f 100/143/20 99/142/19 83/83/3
f 101/144/21 100/143/20 83/83/3
f 81/126/2 101/144/21 83/83/3
s 2
f 102/145/22 103/146/23 104/84/24
f 103/146/23 105/147/25 104/84/24
f 105/147/25 106/148/26 104/84/24
f 106/148/26 107/149/27 104/84/24
f 107/149/27 108/150/28 104/84/24
f 108/150/28 109/151/29 104/84/24
f 109/151/29 110/152/30 104/84/24
f 110/152/30 111/153/31 104/84/24
f 111/153/31 112/154/32 104/84/24
f 112/154/32 113/155/33 104/84/24
f 113/155/33 114/156/34 104/84/24
f 114/156/34 115/157/35 104/84/24
f 115/157/35 116/158/36 104/84/24
f 116/158/36 117/159/37 104/84/24
f 117/159/37 118/160/38 104/84/24
f 118/160/38 119/161/39 104/84/24
f 119/161/39 120/162/40 104/84/24
f 120/162/40 121/163/41 104/84/24
f 121/163/41 122/164/42 104/84/24
f 122/164/42 102/145/22 104/84/24
s 3
f 2/2/43 1/1/44 41/86/45 42/85/46
f 3/3/47 2/2/43 42/85/46 43/87/48
f 4/4/49 3/3/47 43/87/48 44/88/50
f 5/5/51 4/4/49 44/88/50 45/89/52
f 6/6/53 5/5/51 45/89/52 46/90/54
f 7/7/55 6/6/53 46/90/54 47/91/56
f 8/8/57 7/7/55 47/91/56 48/92/58
f 9/9/59 8/8/57 48/92/58 49/93/60
f 10/10/61 9/9/59 49/93/60 50/94/62
f 11/11/63 10/10/61 50/94/62 51/95/64
f 12/12/65 11/11/63 51/95/64 52/96/66
f 13/13/67 12/12/65 52/96/66 53/97/68
f 14/14/69 13/13/67 53/97/68 54/98/70
f 15/15/71 14/14/69 54/98/70 55/99/72
f 16/16/73 15/15/71 55/99/72 56/100/74
f 17/17/75 16/16/73 56/100/74 57/101/76
f 18/18/77 17/17/75 57/101/76 58/102/78
f 19/19/79 18/18/77 58/102/78 59/103/80
f 20/20/81 19/19/79 59/103/80 60/104/82
f 1/1/44 20/20/81 60/104/82 41/86/45
s 4
f 22/80/83 62/106/84 61/105/85 21/81/86
f 23/79/87 63/107/88 62/106/84 22/80/83
f 24/78/89 64/108/90 63/107/88 23/79/87
f 25/77/91 65/109/92 64/108/90 24/78/89
f 26/76/93 66/110/94 65/109/92 25/77/91
f 27/75/95 67/111/96 66/110/94 26/76/93
f 28/74/97 68/112/98 67/111/96 27/75/95
f 29/73/99 69/113/100 68/112/98 28/74/97
f 30/72/101 70/114/102 69/113/100 29/73/99
f 31/71/103 71/115/104 70/114/102 30/72/101
f 32/70/105 72/116/106 71/115/104 31/71/103
f 33/69/107 73/117/108 72/116/106 32/70/105
f 34/68/109 74/118/110 73/117/108 33/69/107
f 35/67/111 75/119/112 74/118/110 34/68/109
f 36/66/113 76/120/114 75/119/112 35/67/111
f 37/65/115 77/121/116 76/120/114 36/66/113
f 38/64/117 78/122/118 77/121/116 37/65/115
f 39/63/119 79/123/120 78/122/118 38/64/117
f 40/82/121 80/124/122 79/123/120 39/63/119
f 21/81/86 61/105/85 80/124/122 40/82/121
s 5
f 42/85/123 41/86/124 81/126/125 82/125/126
f 43/87/127 42/85/123 82/125/126 84/127/128
f 44/88/129 43/87/127 84/127/128 85/128/130
f 45/89/131 44/88/129 85/128/130 86/129/132
f 46/90/133 45/89/131 86/129/132 87/130/134
f 47/91/135 46/90/133 87/130/134 88/131/136
f 48/92/137 47/91/135 88/131/136 89/132/138
f 49/93/139 48/92/137 89/132/138 90/133/140
f 50/94/141 49/93/139 90/133/140 91/134/142
f 51/95/143 50/94/141 91/134/142 92/135/144
f 52/96/145 51/95/143 92/135/144 93/136/146
f 53/97/147 52/96/145 93/136/146 94/137/148
f 54/98/149 53/97/147 94/137/148 95/138/150
f 55/99/151 54/98/149 95/138/150 96/139/152
f 56/100/153 55/99/151 96/139/152 97/140/154
f 57/101/155 56/100/153 97/140/154 98/141/156
f 58/102/157 57/101/155 98/141/156 99/142/158
f 59/103/159 58/102/157 99/142/158 100/143/160
f 60/104/161 59/103/159 100/143/160 101/144/162
f 41/86/124 60/104/161 101/144/162 81/126/125
s 6
f 61/105/163 62/106/164 103/146/165 102/145/166
f 62/106/164 63/107/167 105/147/168 103/146/165
f 63/107/167 64/108/169 106/148/170 105/147/168
f 64/108/169 65/109/171 107/149/172 106/148/170
f 65/109/171 66/110/173 108/150/174 107/149/172
f 66/110/173 67/111/175 109/151/176 108/150/174
f 67/111/175 68/112/177 110/152/178 109/151/176
f 68/112/177 69/113/179 111/153/180 110/152/178
f 69/113/179 70/114/181 112/154/182 111/153/180
f 70/114/181 71/115/183 113/155/184 112/154/182
f 71/115/183 72/116/185 114/156/186 113/155/184
f 72/116/185 73/117/187 115/157/188 114/156/186
f 73/117/187 74/118/189 116/158/190 115/157/188
f 74/118/189 75/119/191 117/159/192 116/158/190
f 75/119/191 76/120/193 118/160/194 117/159/192
f 76/120/193 77/121/195 119/161/196 118/160/194
f 77/121/195 78/122/197 120/162/198 119/161/196
f 78/122/197 79/123/199 121/163/200 120/162/198
f 79/123/199 80/124/201 122/164/202 121/163/200
f 80/124/201 61/105/163 102/145/166 122/164/202
s 7
f 20/40/203 1/41/204 21/62/205 40/61/206
f 19/39/207 20/40/203 40/61/206 39/60/208
f 18/38/209 19/39/207 39/60/208 38/59/210
f 17/37/211 18/38/209 38/59/210 37/58/212
f 16/36/213 17/37/211 37/58/212 36/57/214
f 15/35/215 16/36/213 36/57/214 35/56/216
f 14/34/217 15/35/215 35/56/216 34/55/218
f 13/33/219 14/34/217 34/55/218 33/54/220
f 12/32/221 13/33/219 33/54/220 32/53/222
f 11/31/223 12/32/221 32/53/222 31/52/224
f 10/30/225 11/31/223 31/52/224 30/51/226
f 9/29/227 10/30/225 30/51/226 29/50/228
f 8/28/229 9/29/227 29/50/228 28/49/230
f 7/27/231 8/28/229 28/49/230 27/48/232
f 6/26/233 7/27/231 27/48/232 26/47/234
f 5/25/235 6/26/233 26/47/234 25/46/236
f 4/24/237 5/25/235 25/46/236 24/45/238
f 3/23/239 4/24/237 24/45/238 23/44/240
f 2/22/241 3/23/239 23/44/240 22/43/242
f 21/42/205 1/21/204 2/22/241 22/43/242
